<svg width="22" height="22" viewBox="0 0 22 22" fill="none" xmlns="http://www.w3.org/2000/svg">
<path d="M20.7572 7.68052L20.7572 7.68045C20.7536 7.66953 20.7486 7.65997 20.7432 7.64971C20.7414 7.64618 20.7395 7.64257 20.7376 7.63878C20.7327 7.62897 20.7278 7.61977 20.7229 7.61056C20.718 7.60135 20.7131 7.59214 20.7081 7.58231L20.7082 7.58235C20.7062 7.57906 20.7042 7.5756 20.7022 7.57206C20.6967 7.56236 20.6908 7.55209 20.6836 7.54312L20.6836 7.54308C20.664 7.51364 20.6419 7.4842 20.6198 7.45474C20.6075 7.44001 20.5928 7.42284 20.5781 7.40812L20.5781 7.40808C20.5683 7.39586 20.5561 7.38607 20.5438 7.37625L20.5437 7.37621C20.5335 7.36602 20.5222 7.35702 20.5113 7.34836C20.5064 7.34452 20.5017 7.34074 20.4971 7.33695L20.7572 7.68052ZM20.7572 7.68052C20.7621 7.69031 20.7658 7.70071 20.7692 7.71114C20.7725 7.72153 20.7756 7.73198 20.7793 7.7418L20.7572 7.68052ZM20.4432 7.29774L20.4431 7.29771L11.4688 1.32382C11.3304 1.2314 11.1678 1.18208 11.0014 1.18208C10.835 1.18208 10.6723 1.2314 10.5339 1.32382L1.5547 7.30261L1.55465 7.30265L1.55464 7.30265C1.55224 7.30385 1.54983 7.30566 1.54736 7.30751L1.54734 7.30752C1.5449 7.30935 1.54241 7.31122 1.53991 7.31247L1.54 7.31241C1.52773 7.32223 1.51544 7.33206 1.50069 7.3419L1.5007 7.34189C1.48948 7.3499 1.47933 7.35894 1.46952 7.36769C1.46432 7.37232 1.45921 7.37688 1.45408 7.38115L1.45407 7.38116C1.44796 7.38604 1.44246 7.39155 1.43693 7.39707L1.43692 7.39708C1.4314 7.4026 1.42586 7.40814 1.4197 7.41308L1.41974 7.41303C1.40501 7.42777 1.39031 7.44247 1.37806 7.45962L1.37802 7.45967L1.37802 7.45967C1.3535 7.48664 1.33388 7.51606 1.31425 7.54797C1.31149 7.55258 1.30838 7.55719 1.30519 7.56191C1.30412 7.5635 1.30304 7.5651 1.30196 7.56672C1.29766 7.57316 1.29338 7.57989 1.28972 7.58722L1.2897 7.58725C1.27989 7.60441 1.27008 7.62404 1.26026 7.64368L1.26025 7.64369L1.26023 7.64373C1.25657 7.64984 1.25351 7.65656 1.25044 7.66362C1.2499 7.66487 1.24935 7.66613 1.2488 7.6674C1.24626 7.67329 1.24364 7.67936 1.24061 7.68543L1.24011 7.68518L1.24063 7.68538C1.23695 7.69519 1.23328 7.70561 1.2296 7.71603L1.22959 7.71606C1.2259 7.7265 1.22222 7.73694 1.21853 7.74676L1.21801 7.74657L1.21854 7.74674C1.21753 7.74976 1.21653 7.75268 1.21555 7.75553C1.21172 7.76661 1.20823 7.77673 1.20628 7.7884L1.20628 7.78843H1.20628C1.20137 7.81051 1.19647 7.83504 1.19156 7.85958L1.19155 7.85962L1.18419 7.89642C1.17928 7.93323 1.17683 7.97003 1.17683 8.00684V13.9856C1.17683 14.0224 1.17928 14.0592 1.18419 14.096C1.18419 14.096 1.18419 14.096 1.18419 14.0961L1.19155 14.1328L1.19155 14.1328L1.20626 14.204C1.20627 14.204 1.20627 14.204 1.20627 14.204C1.20873 14.2114 1.21057 14.2181 1.21241 14.2249C1.21425 14.2316 1.21609 14.2384 1.21854 14.2457C1.2259 14.2678 1.23326 14.2874 1.24063 14.3071L1.24064 14.3071C1.24428 14.318 1.24927 14.3276 1.25463 14.3378C1.25647 14.3414 1.25836 14.345 1.26025 14.3488C1.26275 14.3538 1.26509 14.3586 1.26739 14.3634C1.27414 14.3773 1.28055 14.3906 1.28969 14.4052L1.28969 14.4052C1.29167 14.4085 1.29364 14.412 1.29565 14.4155C1.30118 14.4252 1.30703 14.4355 1.31421 14.4444L1.31422 14.4445C1.31834 14.4502 1.32216 14.456 1.32599 14.4617C1.33362 14.4731 1.34122 14.4845 1.35102 14.496L1.35104 14.496L1.38049 14.5328C1.39277 14.5475 1.40749 14.5647 1.4222 14.5794L1.42224 14.5795C1.43202 14.5917 1.44424 14.6015 1.45653 14.6113L1.45658 14.6114C1.46677 14.6215 1.47812 14.6305 1.48905 14.6392C1.49389 14.643 1.49865 14.6468 1.50319 14.6506L1.50283 14.651M20.4432 7.29774L1.50318 14.6506L1.50283 14.651M20.4432 7.29774C20.4456 7.29894 20.448 7.30075 20.4505 7.3026C20.4529 7.30442 20.4554 7.30629 20.4579 7.30755L20.4432 7.29774ZM1.50283 14.651C1.51511 14.6609 1.52739 14.6707 1.54212 14.6805L1.24011 14.3073C1.24376 14.3183 1.24878 14.3279 1.25415 14.3381C1.25599 14.3417 1.25787 14.3453 1.25975 14.349C1.26225 14.354 1.26458 14.3588 1.26688 14.3636C1.27363 14.3776 1.28006 14.3908 1.28922 14.4055C1.29118 14.4088 1.29314 14.4122 1.29515 14.4157C1.30068 14.4254 1.30656 14.4358 1.31377 14.4448C1.31786 14.4505 1.32168 14.4562 1.3255 14.462C1.33314 14.4734 1.34078 14.4849 1.3506 14.4963L1.38006 14.5332C1.39234 14.5479 1.40707 14.5651 1.42181 14.5798C1.43162 14.5921 1.4439 14.6019 1.45617 14.6117C1.46639 14.622 1.47779 14.631 1.48873 14.6397C1.49357 14.6435 1.49831 14.6473 1.50283 14.651ZM20.6914 14.4448C20.6942 14.4402 20.6973 14.4356 20.7005 14.4309C20.7058 14.423 20.7114 14.4147 20.716 14.4055C20.7209 14.3957 20.7258 14.3865 20.7307 14.3772C20.7357 14.368 20.7406 14.3588 20.7455 14.349C20.7498 14.3418 20.7533 14.3337 20.7569 14.3253C20.7595 14.3194 20.7621 14.3133 20.7651 14.3073L20.7646 14.3071C20.7683 14.2973 20.7719 14.2868 20.7756 14.2764C20.7774 14.2715 20.7791 14.2666 20.7808 14.2618C20.7828 14.2563 20.7847 14.2509 20.7867 14.2457C20.7916 14.2334 20.7965 14.2187 20.7989 14.2041L20.7989 14.204C20.804 14.1889 20.8067 14.1727 20.8095 14.1561C20.8108 14.1484 20.8121 14.1406 20.8137 14.1328L20.821 14.0961C20.8259 14.0592 20.8284 14.0224 20.8284 13.9856V8.00198C20.8235 7.97742 20.8207 7.95284 20.818 7.92829C20.8167 7.91603 20.8153 7.90377 20.8137 7.89153C20.8137 7.89152 20.8137 7.89152 20.8137 7.89151L20.8063 7.85471C20.8048 7.84704 20.8035 7.83962 20.8022 7.8323C20.7994 7.81613 20.7966 7.80044 20.7916 7.78356C20.7906 7.78057 20.7896 7.77766 20.7886 7.77482L20.6914 14.4448ZM1.28922 7.58697C1.2794 7.60415 1.26958 7.62378 1.25976 7.64342L1.28922 7.58697ZM11.8448 3.60003V3.60014L11.8467 3.6014V7.53295H11.8462L11.8469 7.53342L15.5054 9.97895L15.5049 9.9797L15.506 9.97895L18.4598 8.00484L18.4595 8.00438L18.4592 8.00392L18.4587 8.00317L11.8478 3.60081V3.59947H11.8473V3.59891H11.8448V3.59947V3.60003ZM11.8467 3.60003V3.60006L11.8466 3.60003H11.8467ZM10.155 3.59947H10.1545L3.54292 8.00392L3.54323 8.00438L3.54354 8.00485L3.54404 8.00559L6.49672 9.97895L6.49622 9.9797L6.49734 9.97895L10.1558 7.53342L10.1561 7.53379V7.53295V3.59947H10.1555H10.155ZM2.86556 9.58072L2.86524 9.58118L2.865 9.58155V12.4044H2.86556H2.86611H2.86656L4.97747 10.993L4.97716 10.9926L4.97685 10.9921L4.97635 10.9913L2.86587 9.58026L2.86556 9.58072ZM10.1555 18.3832L10.1558 18.3827L10.1561 18.3823V14.4497H10.1565L10.1558 14.4492L6.49734 12.0037L6.49784 12.0029L6.49672 12.0037L3.54292 13.9778L3.54323 13.9783L3.54354 13.9787L3.54404 13.9795L10.1552 18.3836L10.1555 18.3832ZM10.9998 12.9868L10.9993 12.9875L11.0005 12.9868L13.9862 10.9906L13.9859 10.9901L13.9856 10.9896L13.9851 10.9889L11.0005 8.99588L11.001 8.99513L10.9998 8.99588L8.01413 10.9921L8.01444 10.9926L8.01475 10.993L8.01525 10.9938L10.9998 12.9868ZM11.8454 18.3832H11.8458L18.4574 13.9787L18.4571 13.9783L18.4568 13.9778L18.4563 13.9771L15.5036 12.0037L15.5041 12.0029L15.503 12.0037L11.8445 14.4492L11.8442 14.4489V14.4497V18.3832H11.8448H11.8454ZM19.1348 12.4019L19.1351 12.4015L19.1353 12.4011V9.57827H19.1348H19.1342H19.1337L17.0228 10.9896L17.0231 10.9901L17.0235 10.9906L17.024 10.9913L19.1344 12.4024L19.1348 12.4019Z" fill="currentColor" stroke="currentColor" stroke-width="0.00111607"/>
</svg>
